<?xml version="1.0" encoding="iso-8859-1"?>
<!-- Generator: Adobe Illustrator 19.0.0, SVG Export Plug-In . SVG Version: 6.00 Build 0)  -->
<svg version="1.1" id="Capa_1" xmlns="http://www.w3.org/2000/svg" xmlns:xlink="http://www.w3.org/1999/xlink" x="0px" y="0px"
	 viewBox="0 0 512 512" style="enable-background:new 0 0 512 512;" xml:space="preserve">
<g>
	<g>
		<path d="M255,302c-8.276,0-15,6.724-15,15v30c0,8.276,6.724,15,15,15s15-6.724,15-15v-30C270,308.724,263.276,302,255,302z"/>
	</g>
</g>
<g>
	<g>
		<path d="M195,182c-8.276,0-15,6.724-15,15s6.724,15,15,15s15-6.724,15-15S203.276,182,195,182z"/>
	</g>
</g>
<g>
	<g>
		<path d="M467,212h-22.229c-4.805-20.186-12.876-39.668-23.774-57.363l14.312-14.312c17.549-17.549,17.549-46.084,0-63.633
			c-17.549-17.549-46.084-17.549-63.633,0l-14.312,14.312C339.668,80.105,320.186,72.034,300,67.229V45c0-24.814-20.186-45-45-45
			c-24.814,0-45,20.186-45,45v22.229c-20.186,4.805-39.668,12.876-57.363,23.774l-14.312-14.312
			c-17.549-17.549-46.084-17.549-63.633,0c-17.549,17.549-17.549,46.084,0,63.633l14.312,14.312
			C78.105,172.332,70.034,191.814,65.229,212H45c-24.814,0-45,20.186-45,45c0,24.814,20.186,45,45,45h20.229
			c4.805,20.186,12.876,39.668,23.774,57.363l-14.312,14.312c-17.549,17.549-17.549,46.084,0,63.633
			c17.549,17.549,46.084,17.549,63.633,0l14.312-14.312c17.695,10.898,37.178,18.97,57.363,23.774V467c0,24.814,20.186,45,45,45
			c24.814,0,45-20.186,45-45v-20.229c20.186-4.805,39.668-12.876,57.363-23.774l14.312,14.312c17.549,17.549,46.084,17.549,63.633,0
			s17.549-46.084,0-63.633l-14.312-14.312c10.898-17.695,18.97-37.178,23.774-57.363H467c24.814,0,45-20.186,45-45
			C512,232.187,491.814,212,467,212z M255,122c8.284,0,15,6.716,15,15s-6.716,15-15,15s-15-6.716-15-15S246.716,122,255,122z
			 M165,362c-8.284,0-15-6.716-15-15s6.716-15,15-15s15,6.716,15,15S173.284,362,165,362z M175.605,297.605
			c-2.93,2.93-6.768,4.395-10.605,4.395s-7.676-1.465-10.605-4.395l-30-30c-5.859-5.859-5.859-15.352,0-21.211
			c5.859-5.859,15.352-5.859,21.211,0l30,30C181.465,282.254,181.465,291.746,175.605,297.605z M195,242c-24.814,0-45-20.186-45-45
			c0-24.814,20.186-45,45-45c24.814,0,45,20.186,45,45C240,221.814,219.814,242,195,242z M300,347c0,24.814-20.186,45-45,45
			c-24.814,0-45-20.186-45-45v-30c0-24.814,20.186-45,45-45c24.814,0,45,20.186,45,45V347z M345,362c-8.284,0-15-6.716-15-15
			s6.716-15,15-15s15,6.716,15,15S353.284,362,345,362z M379.79,262.171l-0.088,0.088c-8.73,8.73-20.186,13.096-31.655,13.096
			s-22.925-4.365-31.655-13.096l-36.606-36.606c-17.446-17.446-17.446-45.835-0.015-63.296
			c17.549-17.549,45.952-17.593,63.413-0.103l36.606,36.606C397.251,216.321,397.251,244.71,379.79,262.171z"/>
	</g>
</g>
<g>
	<g>
		<path d="M358.579,220.07l-36.606-36.605c-2.871-2.871-6.65-4.307-10.43-4.307c-3.78,0-7.573,1.436-10.444,4.321
			c-5.845,5.845-5.845,15.205-0.103,20.962l36.606,36.606c5.771,5.742,15.117,5.742,20.889,0l0.088-0.088
			C364.336,235.202,364.336,225.827,358.579,220.07z"/>
	</g>
</g>
<g>
</g>
<g>
</g>
<g>
</g>
<g>
</g>
<g>
</g>
<g>
</g>
<g>
</g>
<g>
</g>
<g>
</g>
<g>
</g>
<g>
</g>
<g>
</g>
<g>
</g>
<g>
</g>
<g>
</g>
</svg>
