<?xml version="1.0" encoding="iso-8859-1"?>
<!-- Generator: Adobe Illustrator 19.0.0, SVG Export Plug-In . SVG Version: 6.00 Build 0)  -->
<svg version="1.1" id="Layer_1" xmlns="http://www.w3.org/2000/svg" xmlns:xlink="http://www.w3.org/1999/xlink" x="0px" y="0px"
	 viewBox="0 0 300 300" style="enable-background:new 0 0 300 300;" xml:space="preserve">
<g>
	<g>
		<g>
			<path d="M149.999,74.97c-41.191,0-74.703,33.509-74.703,74.7c0,41.194,33.512,74.706,74.703,74.706
				c41.191,0,74.703-33.512,74.703-74.706C224.702,108.482,191.19,74.97,149.999,74.97z M108.727,190.937l21.2-50.414l29.222,29.214
				L108.727,190.937z M170.117,158.699l-29.155-29.147l50.303-21.148L170.117,158.699z"/>
			<path d="M149.996,0C67.157,0,0.001,67.161,0.001,149.997S67.157,300,149.996,300s150.003-67.163,150.003-150.003
				S232.835,0,149.996,0z M149.999,239.938c-49.771,0-90.265-40.494-90.265-90.267c0-49.771,40.491-90.262,90.265-90.262
				c49.774,0,90.265,40.491,90.265,90.262S199.77,239.938,149.999,239.938z"/>
		</g>
	</g>
</g>
<g>
</g>
<g>
</g>
<g>
</g>
<g>
</g>
<g>
</g>
<g>
</g>
<g>
</g>
<g>
</g>
<g>
</g>
<g>
</g>
<g>
</g>
<g>
</g>
<g>
</g>
<g>
</g>
<g>
</g>
</svg>
