<?xml version="1.0" encoding="iso-8859-1"?>
<!-- Generator: Adobe Illustrator 19.0.0, SVG Export Plug-In . SVG Version: 6.00 Build 0)  -->
<svg version="1.1" id="Layer_1" xmlns="http://www.w3.org/2000/svg" xmlns:xlink="http://www.w3.org/1999/xlink" x="0px" y="0px"
	 viewBox="0 0 299.998 299.998" style="enable-background:new 0 0 299.998 299.998;" xml:space="preserve">
<g>
	<g>
		<g>
			<rect x="103.313" y="157.774" width="93.369" height="10.374"/>
			<rect x="103.313" y="134.761" width="93.369" height="10.374"/>
			<path d="M149.995,0.001C67.156,0.001,0,67.16,0,149.999s67.156,149.997,149.995,149.997s150.003-67.161,150.003-149.997
				C299.997,67.157,232.834,0.001,149.995,0.001z M185.688,64.563l31.517,28.669h-31.517V64.563z M198.982,235.43h-97.967
				c-10.068,0-18.225-8.159-18.225-18.225V82.79c0-10.066,8.159-18.225,18.225-18.225h76.889v36.45h39.298v92.412H180.2h-10.374
				V203.8h-66.512v10.374h66.513v5.942v10.374H180.2h31.229C208.169,233.547,203.799,235.43,198.982,235.43z M230.018,220.116
				L230.018,220.116H180.2V203.8h49.818V220.116z"/>
			<rect x="103.313" y="111.746" width="93.369" height="10.374"/>
			<rect x="103.313" y="180.787" width="93.369" height="10.374"/>
		</g>
	</g>
</g>
<g>
</g>
<g>
</g>
<g>
</g>
<g>
</g>
<g>
</g>
<g>
</g>
<g>
</g>
<g>
</g>
<g>
</g>
<g>
</g>
<g>
</g>
<g>
</g>
<g>
</g>
<g>
</g>
<g>
</g>
</svg>
