<?xml version="1.0" encoding="iso-8859-1"?>
<!-- Generator: Adobe Illustrator 19.0.0, SVG Export Plug-In . SVG Version: 6.00 Build 0)  -->
<svg version="1.1" id="Layer_1" xmlns="http://www.w3.org/2000/svg" xmlns:xlink="http://www.w3.org/1999/xlink" x="0px" y="0px"
	 viewBox="0 0 300 300" style="enable-background:new 0 0 300 300;" xml:space="preserve">
<g>
	<g>
		<path d="M149.996,0C67.157,0,0.001,67.161,0.001,149.997S67.157,300,149.996,300s150.003-67.163,150.003-150.003
			S232.835,0,149.996,0z M148.751,218.468c-12.893,0-23.342-11.082-23.342-24.764h46.685
			C172.093,207.386,161.641,218.468,148.751,218.468z M170.413,180.695h-43.326c-1.167-12.753-31.476-23.871-31.476-55.747
			c0-33.999,25.425-52.027,53.135-52.709h0.003c0.003,0,0.003,0,0.003,0c27.712,0.685,53.135,18.71,53.135,52.709
			C201.889,156.824,171.58,167.942,170.413,180.695z"/>
	</g>
</g>
<g>
</g>
<g>
</g>
<g>
</g>
<g>
</g>
<g>
</g>
<g>
</g>
<g>
</g>
<g>
</g>
<g>
</g>
<g>
</g>
<g>
</g>
<g>
</g>
<g>
</g>
<g>
</g>
<g>
</g>
</svg>
