<?xml version="1.0" encoding="iso-8859-1"?>
<!-- Generator: Adobe Illustrator 19.0.0, SVG Export Plug-In . SVG Version: 6.00 Build 0)  -->
<svg version="1.1" id="Layer_1" xmlns="http://www.w3.org/2000/svg" xmlns:xlink="http://www.w3.org/1999/xlink" x="0px" y="0px"
	 viewBox="0 0 299.997 299.997" style="enable-background:new 0 0 299.997 299.997;" xml:space="preserve">
<g>
	<g>
		<path d="M149.996,0C67.157,0,0.001,67.158,0.001,149.997c0,82.837,67.156,150,149.995,150s150-67.163,150-150
			C299.996,67.158,232.835,0,149.996,0z M145.294,100.159h111.864c0.763,0,1.502,0.091,2.225,0.223l-62.648,36.017l-52.964-36.087
			C144.275,100.25,144.77,100.159,145.294,100.159z M60.572,185.31v-15.558h49.921l-0.609,5.047l-0.112,0.931v0.936
			c0,3.019,0.501,5.921,1.398,8.644H60.572z M112.293,154.842h-68.58V139.28h70.465L112.293,154.842z M117.571,111.218l-0.965,7.965
			H28.585v-15.562h90.384C118.17,106.028,117.677,108.573,117.571,111.218z M249.375,188.852H137.513
			c-3.348,0-6.378-1.351-8.58-3.538c0,0,0,0,0-0.003c-0.539-0.537-1.027-1.128-1.46-1.758c-0.01-0.016-0.029-0.031-0.039-0.047
			c-0.402-0.594-0.737-1.232-1.032-1.891c-0.029-0.065-0.073-0.122-0.104-0.189c-0.265-0.622-0.451-1.284-0.609-1.956
			c-0.029-0.117-0.083-0.223-0.106-0.34c-0.163-0.799-0.249-1.621-0.249-2.464l4.145-34.259l0.379-3.13l3.258-26.94
			c0-0.77,0.093-1.515,0.231-2.243c0.016-0.078,0.008-0.163,0.026-0.241c0.01,0.005,0.018,0.013,0.029,0.021
			c0.35-1.662,1.012-3.206,1.958-4.547v5.88l57.741,39.132c0.078,0.054,0.163,0.083,0.244,0.13c0.083,0.052,0.169,0.093,0.257,0.14
			c0.456,0.233,0.923,0.42,1.401,0.545c0.052,0.013,0.099,0.021,0.15,0.031c0.524,0.124,1.056,0.2,1.582,0.2h0.005
			c0.005,0,0.008,0,0.01,0c0.527,0,1.058-0.075,1.582-0.2c0.052-0.01,0.099-0.018,0.15-0.031c0.477-0.124,0.944-0.311,1.401-0.545
			c0.086-0.047,0.171-0.088,0.257-0.14c0.08-0.047,0.163-0.075,0.244-0.13l68.792-39.716c0.08,0.565,0.171,1.128,0.171,1.717
			l-7.781,64.329C261.559,183.4,256.105,188.852,249.375,188.852z"/>
	</g>
</g>
<g>
</g>
<g>
</g>
<g>
</g>
<g>
</g>
<g>
</g>
<g>
</g>
<g>
</g>
<g>
</g>
<g>
</g>
<g>
</g>
<g>
</g>
<g>
</g>
<g>
</g>
<g>
</g>
<g>
</g>
</svg>
